PathFileType	4	(X/Y/Z)
DataRate	CameraRate	NumFrames	NumMarkers	Units	OrigDataRate	OrigDataStartFrame	OrigNumFrames																																																																																																			
200	200	11	38	mm	200	26	200																																																																																																			
Frame#	Time	C7			Sternum			r_AMC1			r_AMC2			r_AMC3			l_AMC1			l_AMC2			l_AMC3			PX			T8			r_humerous			r_elbow_medial			r_elbow_lateral			r_forearm			r_wrist_radius			r_wrist_ulna			r_MCP_1			r_MCP_3			l_humerous			l_elbow_medial			l_elbow_lateral			l_forearm			l_wrist_radius			l_wrist_ulna			l_MCP_1			l_MCP_3			r_ASIS			r_PSIS			l_ASIS			l_PSIS			r_IC			l_IC			ts_r			ai_r			aa_r			ts_l			ai_l			aa_l		
		X1	Y1	Z1	X2	Y2	Z2	X3	Y3	Z3	X4	Y4	Z4	X5	Y5	Z5	X6	Y6	Z6	X7	Y7	Z7	X8	Y8	Z8	X9	Y9	Z9	X10	Y10	Z10	X11	Y11	Z11	X12	Y12	Z12	X13	Y13	Z13	X14	Y14	Z14	X15	Y15	Z15	X16	Y16	Z16	X17	Y17	Z17	X18	Y18	Z18	X19	Y19	Z19	X20	Y20	Z20	X21	Y21	Z21	X22	Y22	Z22	X23	Y23	Z23	X24	Y24	Z24	X25	Y25	Z25	X26	Y26	Z26	X27	Y27	Z27	X28	Y28	Z28	X29	Y29	Z29	X30	Y30	Z30	X31	Y31	Z31	X32	Y32	Z32	X33	Y33	Z33	X34	Y34	Z34	X35	Y35	Z35	X36	Y36	Z36	X37	Y37	Z37	X38	Y38	Z38
																																																																																																										
26	0.125	199.9777	1376.5791	-210.8147	325.9452	1300.8583	-199.2884	197.765	1322.0763	-44.1374	234.5079	1318.0344	-10.9049	258.0978	1350.483	-31.4792	226.0536	1326.7054	-375.4728	267.267	1317.4425	-405.5882	290.5376	1350.0892	-373.3542	377.5609	1110.744	-193.6807	147.029	1193.2342	-222.0017	293.0508	1125.1493	-7.7279	207.7322	992.0446	-26.3114	234.7454	998.0384	33.0894	281.1588	839.5398	41.7573	325.9924	777.3391	18.1012	278.2376	770.4808	36.7281	337.9511	677.7134	31.3058	296.4715	690.3562	42.6698	319.726	1115.5476	-390.0615	219.8518	999.0803	-407.4087	258.7212	992.9131	-447.363	308.6746	840.8577	-441.0549	338.1321	769.9406	-408.1977	301.3619	765.8015	-435.2821	353.0206	692.9233	-417.6652	309.336	690.8688	-441.091	361.6903	907.6188	-67.7492	174.1652	922.4161	-159.1438	371.4576	895.5642	-329.9756	178.6849	916.6122	-262.7481	273.4174	966.6552	-42.3673	281.7322	940.6666	-369.0727	157.7702	1298.9776	-126.1619	149.827	1197.5713	-118.9302	234.2908	1295.0514	-2.8147	173.6639	1306.4333	-295.4763	157.3821	1206.8694	-287.3275	253.3356	1289.172	-407.1294
27	0.13	200.0346	1376.5917	-210.7899	325.9747	1300.8679	-199.2585	197.8217	1322.0725	-44.1095	234.5824	1318.0421	-10.8719	258.0926	1350.5684	-31.4392	226.0873	1326.7213	-375.4572	267.2299	1317.5343	-405.5486	290.5214	1350.1366	-373.3489	377.5619	1110.7314	-193.7144	147.0728	1193.2501	-221.9886	293.0609	1125.2181	-7.6676	207.7418	992.0435	-26.3077	234.7999	998.0523	33.1144	281.2044	839.5169	41.7649	326.0174	777.313	18.1079	278.3106	770.4182	36.6868	337.9493	677.6664	31.3013	296.4672	690.2975	42.6591	319.8196	1115.3967	-390.0607	219.8678	999.0986	-407.4049	258.734	992.908	-447.3499	308.6697	840.8624	-441.0722	338.1264	769.9859	-408.2004	301.4442	765.7217	-435.2719	352.9989	692.9806	-417.7135	309.385	690.8767	-441.1399	361.7402	907.6383	-67.7216	174.1535	922.4167	-159.1193	371.4705	895.5473	-329.9715	178.6933	916.6224	-262.7443	273.4572	966.66	-42.367	281.7879	940.5841	-369.0565	157.8116	1299.0351	-126.1107	149.8553	1197.5914	-118.909	234.3441	1295.0556	-2.7839	173.6901	1306.4725	-295.451	157.3999	1206.9427	-287.271	253.3887	1289.2297	-407.135
28	0.135	200.095	1376.6086	-210.7495	325.4725	1300.8402	-199.5726	197.9206	1322.0904	-44.0805	234.6822	1317.9896	-10.8203	258.2203	1350.5109	-31.4279	226.1335	1326.7251	-375.428	267.3348	1317.4725	-405.5457	290.7508	1350.8359	-371.9023	377.6288	1110.7198	-193.7027	147.0938	1193.2605	-221.9738	293.1241	1125.1569	-7.6576	207.7725	992.051	-26.2902	234.8082	998.0359	33.1285	281.2178	839.4824	41.7677	326.0394	777.2946	18.0753	278.3095	770.418	36.7264	337.9484	677.6588	31.2965	296.3923	690.3303	42.6806	319.8237	1115.4092	-389.9931	219.796	998.8001	-407.3957	258.7759	992.9627	-447.3141	308.6259	840.9064	-441.0658	338.1497	769.9303	-408.1941	301.461	765.707	-435.32	352.9387	693.0276	-417.6714	309.3535	690.8236	-441.0826	361.748	907.609	-67.7058	174.172	922.4067	-159.11	371.5322	895.5471	-329.9563	178.686	916.6	-262.7484	273.462	966.6504	-42.3828	281.7899	940.6148	-369.0577	157.8633	1299.0388	-126.0524	149.8866	1197.5931	-118.8798	234.3787	1295.0554	-2.7367	173.5468	1306.3846	-295.4644	157.2498	1206.8308	-287.2525	253.1179	1289.1117	-407.2113
29	0.14	200.1649	1376.6249	-210.7325	325.5623	1300.8364	-199.5743	197.9597	1322.0832	-44.037	234.7154	1318.0334	-10.7844	258.2627	1350.5133	-31.3886	226.1483	1326.7327	-375.3979	267.3397	1317.4957	-405.4985	290.8453	1350.4677	-373.3929	377.6053	1110.7217	-193.6779	146.8942	1193.2108	-221.7265	293.1916	1125.1412	-7.6645	207.7749	992.0395	-26.2742	234.8495	998.0674	33.1733	281.3183	839.4752	41.8359	326.0477	777.3485	18.0967	278.3441	770.4123	36.7459	337.9471	677.6356	31.2766	296.4401	690.312	42.6867	319.8548	1115.4642	-390.0254	219.891	999.1129	-407.373	258.7455	992.9448	-447.3041	308.6731	840.8588	-441.0458	338.1484	769.9078	-408.206	301.3211	765.8538	-435.2973	352.9603	692.9658	-417.6331	309.3774	690.8622	-441.1492	361.7778	907.6152	-67.6972	174.1667	922.4167	-159.1102	371.4984	895.5503	-329.9597	178.6836	916.5958	-262.7425	273.486	966.6564	-42.3366	281.715	940.6989	-369.0366	157.9513	1299.0576	-126.0183	149.9438	1197.6407	-118.8986	234.4567	1295.0624	-2.6936	173.5696	1306.484	-295.3139	157.2451	1206.9677	-287.0164	253.0466	1289.0996	-407.1557
30	0.145	200.2149	1376.6351	-210.6861	325.6197	1300.8281	-199.5307	198.044	1322.0764	-44.0174	234.7884	1318.0309	-10.7505	258.1544	1350.3296	-31.5808	226.1864	1326.7347	-375.3734	267.4557	1317.4458	-405.4935	290.8967	1350.4181	-373.2849	377.7394	1110.6897	-193.6529	146.9411	1193.2191	-221.7287	293.2447	1125.1123	-7.6458	207.8318	992.0607	-26.251	234.9015	998.0704	33.1903	281.2319	839.5	41.8042	326.0835	777.2697	18.1077	278.2863	770.489	36.7529	337.9629	677.6237	31.2694	296.4801	690.2853	42.6711	319.8671	1115.5214	-389.9977	219.8876	999.1216	-407.3837	258.7792	992.9531	-447.2913	308.6457	840.8914	-441.015	338.0968	769.9775	-408.172	301.3743	765.8213	-435.3008	352.9214	693.077	-417.6923	309.3374	690.859	-441.0886	362.2808	907.8895	-67.6469	174.1829	922.4242	-159.0883	371.5188	895.4819	-329.9545	178.694	916.6022	-262.7344	273.512	966.6346	-42.3281	281.8185	940.5655	-369.0364	157.9998	1299.1055	-125.9547	149.9398	1197.669	-118.881	234.4099	1294.8987	-2.914	173.5306	1306.3929	-295.2441	157.2242	1206.8131	-287.0628	252.9682	1289.0019	-407.1345
31	0.15	200.2639	1376.6679	-210.6347	325.664	1300.8269	-199.5286	198.1013	1322.0775	-43.9874	234.8907	1317.9907	-10.7648	258.3631	1350.568	-31.3054	226.2436	1326.7644	-375.3655	267.4275	1317.5282	-405.5061	290.8498	1350.4822	-373.2386	377.7238	1110.6854	-193.7219	147.1909	1193.3142	-221.9156	293.2506	1125.1759	-7.6098	207.8532	992.0416	-26.2364	234.9476	998.0624	33.2273	281.3649	839.529	41.8599	326.0655	777.2883	18.0665	278.3673	770.4074	36.7725	337.9651	677.61	31.2728	296.4975	690.2454	42.6721	319.93	1115.4358	-389.9586	219.9284	999.142	-407.3417	258.7832	992.9777	-447.286	308.6236	840.9096	-441.0735	338.1031	769.9665	-408.163	301.3383	765.8151	-435.2715	352.9216	693.0326	-417.6738	309.2691	690.9531	-441.0706	362.3067	907.8677	-67.6304	174.195	922.4262	-159.081	371.5388	895.5033	-329.9519	178.6941	916.6396	-262.7116	273.4927	966.7495	-42.3364	281.7364	940.5419	-369.043	158.0621	1299.0889	-125.9115	149.9499	1197.6587	-118.8327	234.5946	1295.0345	-2.6508	173.7014	1306.4928	-295.369	157.3408	1206.9693	-287.1694	253.2019	1289.2307	-407.1832
32	0.155	200.3211	1376.6835	-210.6043	325.698	1300.7996	-199.5285	198.1767	1322.1097	-43.9344	234.921	1318.0823	-10.7178	258.4629	1350.5151	-31.2853	226.3064	1326.7131	-375.3086	267.5193	1317.4707	-405.5044	290.8839	1350.8787	-371.8231	377.7521	1110.6855	-193.6423	147.2138	1193.3513	-221.8721	293.3215	1125.0913	-7.6025	207.8902	992.0557	-26.1895	234.9865	998.0808	33.2446	281.3893	839.5123	41.8471	326.0818	777.2699	18.1223	278.366	770.4232	36.8033	337.9799	677.5967	31.2751	296.4385	690.322	42.6585	319.9678	1115.4349	-389.9627	219.9257	999.1561	-407.3055	258.8035	992.9897	-447.274	308.6298	840.9375	-441.0115	338.139	769.9952	-408.2453	301.2778	765.8636	-435.2549	352.5528	693.047	-417.7304	309.2759	690.8961	-441.085	362.3349	907.8563	-67.6037	174.205	922.4064	-159.0669	371.5071	895.4866	-329.9393	178.6965	916.6284	-262.7165	273.5767	966.6233	-42.3528	281.6694	940.6022	-369.0188	158.112	1299.0932	-125.9033	149.9752	1197.7141	-118.7844	234.6781	1295.0041	-2.693	173.8009	1306.5527	-295.3115	157.4167	1206.9847	-287.106	253.3124	1289.1974	-407.1696
33	0.16	200.3606	1376.695	-210.5612	325.771	1300.8383	-199.5129	198.2227	1322.1108	-43.9149	235.0099	1318.0509	-10.6893	258.5295	1350.5041	-31.2526	226.3004	1326.7837	-375.3252	267.3895	1317.3962	-405.5797	291.0542	1350.9213	-372.241	377.7934	1110.6737	-193.6814	147.0189	1193.3024	-221.6531	293.3615	1125.1217	-7.5749	207.9183	992.0594	-26.1873	235.0454	998.0725	33.2635	281.3904	839.5248	41.8565	326.0999	777.2694	18.0959	278.4025	770.3846	36.8026	337.9979	677.5962	31.2693	296.5051	690.2983	42.6723	319.9768	1115.4855	-389.9347	219.963	999.1555	-407.3174	258.8104	993.0106	-447.2623	308.6322	840.9248	-441.0322	338.0328	770.0494	-408.1559	301.3444	765.861	-435.2762	352.5609	692.9614	-417.6901	309.2702	690.9783	-441.1203	362.3517	907.8958	-67.6159	174.2266	922.4243	-159.0579	371.5521	895.4811	-329.9477	178.6994	916.6444	-262.6933	273.4742	966.7601	-42.3103	281.7753	940.58	-368.9409	158.155	1299.1264	-125.87	149.9628	1197.7055	-118.8015	234.7528	1295.0306	-2.614	173.663	1306.5349	-295.1625	157.3009	1207.0047	-286.8755	253.0504	1289.187	-407.1129
34	0.165	200.4082	1376.712	-210.5322	325.8245	1300.8361	-199.4738	198.2963	1322.1028	-43.8759	235.1032	1318.0142	-10.6441	258.5833	1350.52	-31.2333	226.3138	1326.814	-375.2643	267.4226	1317.447	-405.5754	291.1574	1350.858	-372.2832	377.8464	1110.6669	-193.6544	147.2729	1193.3885	-221.8187	293.4093	1125.1218	-7.5775	207.9556	992.0413	-26.1584	235.056	998.0661	33.2876	281.389	839.59	41.8942	326.1563	777.2412	18.0836	278.3786	770.4503	36.8027	338.0128	677.5764	31.2796	296.5155	690.2904	42.6799	319.9862	1115.5341	-389.8973	220.2744	1000.225	-407.2553	258.8539	993.0211	-447.2458	308.5945	840.9833	-441.0261	338.0387	770.082	-408.1703	301.3095	765.837	-435.2143	352.5457	692.993	-417.7003	309.3131	690.9428	-441.1293	362.3977	907.8598	-67.6216	174.2134	922.4352	-159.0532	371.5459	895.4729	-329.9349	178.7301	916.6269	-262.6818	273.5076	966.7782	-42.2707	281.7825	940.5701	-368.9817	158.2227	1299.1316	-125.8224	149.976	1197.7356	-118.7759	234.7133	1294.8954	-2.7461	173.8737	1306.617	-295.2048	157.484	1207.0485	-287.0176	253.3252	1289.3067	-407.0874
35	0.17	200.4554	1376.7162	-210.5063	325.8811	1300.8314	-199.46	198.3587	1322.1108	-43.8514	235.1583	1318.0478	-10.6468	258.632	1350.5419	-31.2184	226.3649	1326.8231	-375.2477	267.4684	1317.4552	-405.5713	291.2761	1350.8091	-372.2444	377.7995	1110.7059	-193.6826	147.2887	1193.4012	-221.7956	293.4901	1125.0806	-7.6037	207.9843	992.0603	-26.1346	235.1218	998.0714	33.2965	281.4385	839.5186	41.9252	326.1508	777.2279	18.1252	278.3948	770.4636	36.8055	338.0487	677.5742	31.2592	296.5191	690.2612	42.7212	319.9658	1115.5955	-389.8804	219.8601	998.8752	-407.2794	258.8478	993.0603	-447.2384	308.6428	840.9501	-440.9849	338.0353	770.0806	-408.174	301.316	765.8962	-435.2364	352.9006	693.0425	-417.672	309.2572	690.9421	-441.0703	362.3906	907.9071	-67.5721	174.2404	922.4396	-159.0309	371.5579	895.4918	-329.9023	178.7381	916.6806	-262.6652	273.5552	966.7514	-42.293	281.6806	940.5824	-368.9643	158.2598	1299.1593	-125.7881	149.9737	1197.7511	-118.7334	234.8734	1294.9898	-2.5523	173.8671	1306.6446	-295.1844	157.4915	1207.0995	-287.0119	253.3235	1289.347	-407.0789
36	0.175	200.4928	1376.7416	-210.4617	325.9622	1300.8502	-199.4428	198.4189	1322.1276	-43.8244	235.2302	1318.0387	-10.6099	258.7315	1350.5041	-31.1999	226.4363	1326.7861	-375.2116	267.4614	1317.4824	-405.516	291.2911	1350.8632	-372.3078	377.9125	1110.7107	-193.6626	147.3309	1193.4111	-221.7863	293.5371	1125.0577	-7.5457	208.0181	992.0426	-26.1211	235.1514	998.0454	33.3076	281.5039	839.4745	41.9148	326.1538	777.2317	18.1228	278.3699	770.4628	36.8482	338.0525	677.5555	31.2465	296.5776	690.2255	42.7297	320.0341	1115.5772	-389.8593	219.9915	999.2383	-407.2663	258.8651	993.0608	-447.2249	308.6376	840.9489	-441.0024	338.0772	770.0316	-408.2025	301.3094	765.8554	-435.2296	352.4724	693.097	-417.7285	309.2405	690.9708	-441.0877	362.4698	907.8541	-67.5743	174.2645	922.446	-159.029	371.5268	895.4712	-329.9081	178.7409	916.6619	-262.6443	273.6198	966.7141	-42.2773	281.8012	940.6615	-368.937	158.3848	1298.3843	-126.1355	150.0353	1197.6345	-118.547	235.0188	1294.8032	-2.4455	173.9254	1306.6875	-295.1545	157.5232	1207.1068	-286.9928	253.3736	1289.3655	-407.0513
